<svg xmlns="http://www.w3.org/2000/svg" viewBox="0 0 100 100" width="100" height="100">
  <defs>
    <linearGradient id="sage-grad" x1="0%" y1="0%" x2="100%" y2="100%">
      <stop offset="0%" stop-color="#7C9D86" />
      <stop offset="100%" stop-color="#4E6E58" />
    </linearGradient>
  </defs>
  <g fill="none" stroke="url(#sage-grad)" stroke-linecap="round" stroke-linejoin="round">
    <!-- Main stem -->
    <path d="M 5,5 Q 15,25 35,45 T 75,75 T 95,95" stroke-width="2" />
    
    <!-- Leaves -->
    <!-- Leaf 1 -->
    <path d="M 15,18 C 25,12 35,15 30,28 C 22,35 15,25 15,18 Z" fill="url(#sage-grad)" fill-opacity="0.25" stroke-width="1" />
    <path d="M 15,18 Q 22,23 30,28" stroke-width="0.8" />
    
    <!-- Leaf 2 -->
    <path d="M 18,15 C 12,25 15,35 28,30 C 35,22 25,15 18,15 Z" fill="url(#sage-grad)" fill-opacity="0.25" stroke-width="1" />
    <path d="M 18,15 Q 23,22 28,30" stroke-width="0.8" />
    
    <!-- Leaf 3 -->
    <path d="M 35,45 C 50,38 55,42 50,55 C 42,62 35,52 35,45 Z" fill="url(#sage-grad)" fill-opacity="0.35" stroke-width="1.2" />
    <path d="M 35,45 Q 42,48 50,55" stroke-width="0.8" />
    
    <!-- Leaf 4 -->
    <path d="M 45,35 C 38,50 42,55 55,50 C 62,42 52,35 45,35 Z" fill="url(#sage-grad)" fill-opacity="0.35" stroke-width="1.2" />
    <path d="M 45,35 Q 48,42 55,50" stroke-width="0.8" />
    
    <!-- Leaf 5 -->
    <path d="M 60,65 C 75,60 80,65 72,78 C 65,82 60,72 60,65 Z" fill="url(#sage-grad)" fill-opacity="0.45" stroke-width="1.2" />
    <path d="M 60,65 Q 66,70 72,78" stroke-width="0.8" />

    <!-- Leaf 6 -->
    <path d="M 65,60 C 60,75 65,80 78,72 C 82,65 72,60 65,60 Z" fill="url(#sage-grad)" fill-opacity="0.45" stroke-width="1.2" />
    <path d="M 65,60 Q 70,66 78,72" stroke-width="0.8" />

    <!-- Small accent dots -->
    <circle cx="32" cy="18" r="1.5" fill="url(#sage-grad)" stroke="none" />
    <circle cx="18" cy="32" r="1.5" fill="url(#sage-grad)" stroke="none" />
    <circle cx="52" cy="38" r="1.2" fill="url(#sage-grad)" stroke="none" />
    <circle cx="38" cy="52" r="1.2" fill="url(#sage-grad)" stroke="none" />
  </g>
</svg>
